<svg xmlns="http://www.w3.org/2000/svg" xmlns:xlink="http://www.w3.org/1999/xlink" viewBox="0 0 24 24" fill="#BDBDBD">
  <path d="M12 0C5.371094 0 0 5.371094 0 12C0 18.628906 5.371094 24 12 24C18.628906 24 24 18.628906 24 12C24 5.371094 18.628906 0 12 0 Z M 12 2C17.523438 2 22 6.476563 22 12C22 17.523438 17.523438 22 12 22C6.476563 22 2 17.523438 2 12C2 6.476563 6.476563 2 12 2 Z M 12 5.8125C11.816406 5.8125 11.664063 5.808594 11.5 5.84375C11.335938 5.878906 11.183594 5.96875 11.0625 6.0625C10.941406 6.15625 10.851563 6.285156 10.78125 6.4375C10.710938 6.589844 10.6875 6.769531 10.6875 7C10.6875 7.226563 10.710938 7.40625 10.78125 7.5625C10.851563 7.71875 10.941406 7.84375 11.0625 7.9375C11.183594 8.03125 11.335938 8.085938 11.5 8.125C11.664063 8.164063 11.816406 8.1875 12 8.1875C12.179688 8.1875 12.371094 8.164063 12.53125 8.125C12.691406 8.085938 12.816406 8.03125 12.9375 7.9375C13.058594 7.84375 13.148438 7.71875 13.21875 7.5625C13.289063 7.410156 13.34375 7.226563 13.34375 7C13.34375 6.769531 13.289063 6.589844 13.21875 6.4375C13.148438 6.285156 13.058594 6.15625 12.9375 6.0625C12.816406 5.96875 12.691406 5.878906 12.53125 5.84375C12.371094 5.808594 12.179688 5.8125 12 5.8125 Z M 10.78125 9.15625L10.78125 18.125L13.21875 18.125L13.21875 9.15625Z" fill="#BDBDBD" />
</svg>