<svg xmlns="http://www.w3.org/2000/svg" xmlns:xlink="http://www.w3.org/1999/xlink" viewBox="0 0 24 24" fill="#BDBDBD">
  <path d="M7 2 A 1.0001 1.0001 0 0 0 6 3L6 5.4921875L2.9921875 7.2460938C2.3801875 7.6030938 2 8.2656094 2 8.9746094L2 19C2 20.103 2.897 21 4 21L20 21C21.103 21 22 20.103 22 19L22 8.9746094C22 8.2656094 21.619812 7.6030937 21.007812 7.2460938L18 5.4921875L18 3 A 1.0001 1.0001 0 0 0 17 2L7 2 z M 8 4L16 4L16 11.333984L12 13.822266L8 11.332031L8 4 z M 6 7.8066406L6 10.087891L4.1074219 8.9101562L6 7.8066406 z M 18 7.8085938L19.892578 8.9121094L18 10.089844L18 7.8085938 z" fill="#BDBDBD" />
</svg>