<svg xmlns="http://www.w3.org/2000/svg" xmlns:xlink="http://www.w3.org/1999/xlink" viewBox="0 0 64 64" fill="#44CC88">
  <path d="M31.78125 2.9960938C30.946851 3.000836 30.112092 3.0422536 29.28125 3.1191406C27.070074 3.3237652 24.882658 3.786163 22.773438 4.5097656C14.303158 7.1606609 7.3465464 14.124372 4.5664062 22.585938C1.5289539 31.184703 2.9719372 41.167163 8.2558594 48.574219C13.284354 55.980553 21.954445 60.708659 30.939453 60.974609C30.940753 60.974648 30.942059 60.974571 30.943359 60.974609C40.447309 61.366689 49.908723 56.899769 55.462891 49.226562 A 1.0001 1.0001 0 0 0 55.46875 49.21875C59.029815 44.20398 61 38.030417 61 31.953125C61 31.649326 60.98252 31.346538 60.972656 31.042969 A 1.000544 1.000544 0 0 0 60.955078 30.511719C60.509138 21.827312 56.064474 13.37101 48.822266 8.4121094L48.814453 8.4023438 A 1.0001 1.0001 0 0 0 48.318359 8.0585938C46.246663 6.6190741 43.993256 5.4825218 41.636719 4.6523438 A 1.0001 1.0001 0 0 0 41.634766 4.6503906 A 1.0001 1.0001 0 0 0 41.177734 4.3710938C39.408132 3.8656349 37.671727 3.3256742 35.623047 3.1894531 A 1.0001 1.0001 0 0 0 35.521484 3.1875 A 1.0001 1.0001 0 0 0 35.386719 3.203125C34.189835 3.0612309 32.985789 2.9892479 31.78125 2.9960938 z M 31.792969 5.0039062C32.285352 5.0014762 32.777441 5.0343683 33.269531 5.0585938L32.556641 5.7734375 A 1.0001 1.0001 0 0 0 32.949219 7.4277344L36.542969 8.6269531L38.921875 11.007812 A 1.0001 1.0001 0 0 0 40.599609 10.548828L41.568359 6.765625C43.555017 7.5166563 45.455936 8.4984611 47.207031 9.71875 A 1.0001 1.0001 0 0 0 47.232422 9.7382812C47.302322 9.7837405 47.368127 9.8346795 47.4375 9.8808594L50.087891 13.197266L50.087891 14.121094 A 1.0001 1.0001 0 0 0 50.722656 15.050781L53.703125 16.222656L54.037109 20.566406 A 1.0001 1.0001 0 0 0 54.050781 20.667969L55.197266 27.035156 A 1.0001 1.0001 0 0 0 55.287109 27.306641L57.832031 32.400391 A 1.0001 1.0001 0 0 0 58.960938 32.925781C58.762291 38.257994 56.960896 43.662715 53.837891 48.060547C49.829895 53.593025 43.551958 57.347368 36.798828 58.5625 A 1.0001161 1.0001161 0 0 0 36.257812 57.808594L35.978516 57.667969L46.535156 49.361328L48.990234 48.132812 A 1.0001 1.0001 0 0 0 49.490234 47.554688L50.742188 43.800781L51.982422 41.318359 A 1.0001 1.0001 0 0 0 52.058594 40.628906L51.421875 38.082031 A 1.0001 1.0001 0 0 0 50.726562 37.363281L46.519531 36.160156L45.429688 35.068359 A 1.0001 1.0001 0 0 0 45.169922 34.880859L42.791016 33.691406L41.642578 32.427734 A 1.0001 1.0001 0 0 0 40.878906 32.101562L35.785156 32.228516 A 1.0001 1.0001 0 0 0 35.363281 32.333984L33.189453 33.421875L29.791016 32.289062L25.353516 30.513672L25.353516 25.033203L28.333984 24.037109L30.099609 24.037109L30.460938 24.759766 A 1.0001163 1.0001163 0 1 0 32.25 23.865234L31.935547 23.234375L36.449219 18.720703L40.185547 16.228516 A 1.0001 1.0001 0 0 0 40.337891 14.689453L37.791016 12.142578L36.517578 10.869141L35.355469 9.703125 A 1.0001 1.0001 0 0 0 34.65625 9.2988281 A 1.0001 1.0001 0 0 0 34.617188 9.2949219 A 1.0001 1.0001 0 0 0 33.710938 9.7148438L31.773438 11.654297L30.445312 11.056641L30.445312 7.921875 A 1.0001 1.0001 0 0 0 30.220703 7.1074219 A 1.0001 1.0001 0 0 0 30.164062 7.0449219 A 1.0001 1.0001 0 0 0 30.152344 7.0332031 A 1.0001 1.0001 0 0 0 30.126953 7.0097656 A 1.0001 1.0001 0 0 0 30.050781 6.9453125 A 1.0001 1.0001 0 0 0 29.265625 6.7578125L24.599609 6.875L23.625 6.3378906C25.516659 5.7068741 27.478583 5.2970917 29.464844 5.1152344C30.238487 5.0444014 31.015297 5.0077442 31.792969 5.0039062 z M 35.853516 5.3066406C37.142051 5.4932737 38.418359 5.7544656 39.667969 6.1230469L39.097656 8.3535156L37.791016 7.046875 A 1.0001 1.0001 0 0 0 37.400391 6.8046875L35.117188 6.0429688L35.853516 5.3066406 z M 21.160156 7.2441406 A 1.0001 1.0001 0 0 0 21.324219 7.3554688L23.871094 8.7578125 A 1.0001 1.0001 0 0 0 24.378906 8.8808594L28.445312 8.7792969L28.445312 11.703125 A 1.0001 1.0001 0 0 0 29.035156 12.615234L31.582031 13.761719 A 1.0001 1.0001 0 0 0 32.699219 13.556641L34.539062 11.716797L35.103516 12.28125L36.376953 13.556641L38.060547 15.240234L35.255859 17.111328 A 1.0001 1.0001 0 0 0 35.103516 17.236328L30.306641 22.037109L28.171875 22.037109 A 1.0001 1.0001 0 0 0 27.855469 22.089844L24.037109 23.363281 A 1.0001 1.0001 0 0 0 23.353516 24.3125L23.353516 29.699219L21.351562 28.697266L18.988281 21.603516L18.988281 16.90625L20.15625 14.570312 A 1.0001 1.0001 0 0 0 20.261719 14.123047L20.261719 10.302734 A 1.0001 1.0001 0 0 0 19.708984 9.4082031L18.279297 8.6933594C19.208994 8.1482908 20.171356 7.6643395 21.160156 7.2441406 z M 16.326172 9.9511719L18.261719 10.919922L18.261719 13.886719L17.09375 16.222656 A 1.0001 1.0001 0 0 0 16.988281 16.669922L16.988281 21.765625 A 1.0001 1.0001 0 0 0 17.039062 22.082031L19.585938 29.722656 A 1.0001 1.0001 0 0 0 20.085938 30.300781L22.632812 31.576172 A 1.0001 1.0001 0 0 0 22.708984 31.609375L29.074219 34.15625 A 1.0001 1.0001 0 0 0 29.128906 34.175781L32.265625 35.222656L32.265625 36.634766L31.285156 37.615234 A 1.0001 1.0001 0 0 0 30.992188 38.322266L30.992188 40.869141 A 1.0001 1.0001 0 0 0 31.042969 41.185547L32.316406 45.007812 A 1.0001 1.0001 0 0 0 32.865234 45.607422L35.535156 46.769531L35.962891 47.380859L32.328125 57.078125 A 1.0001 1.0001 0 0 0 32.818359 58.324219L34.009766 58.919922C33.014062 58.993017 32.013736 59.018241 31.013672 58.976562 A 1.0001 1.0001 0 0 0 31.001953 58.976562C22.678547 58.731389 14.552135 54.294038 9.9042969 47.441406 A 1.0001 1.0001 0 0 0 9.890625 47.421875C4.9959096 40.566582 3.6402427 31.197642 6.453125 23.244141 A 1.0001 1.0001 0 0 0 6.4609375 23.220703C8.2041146 17.906432 11.77227 13.19647 16.326172 9.9511719 z M 55.966797 19.582031C57.644478 22.855136 58.67339 26.467947 58.931641 30.126953L57.140625 26.541016L56.027344 20.363281L55.966797 19.582031 z M 33.287109 27.128906 A 1.0001 1.0001 0 0 0 32.949219 29.082031L36.767578 30.355469 A 1.0001 1.0001 0 1 0 37.400391 28.458984L33.582031 27.183594 A 1.0001 1.0001 0 0 0 33.287109 27.128906 z M 10.988281 32.332031L8.9921875 32.457031C8.4411875 32.492031 8.0226406 32.968531 8.0566406 33.519531C8.0896406 34.049531 8.5306875 34.457031 9.0546875 34.457031C9.0756875 34.457031 9.0951875 34.456078 9.1171875 34.455078L11.113281 34.330078C11.664281 34.295078 12.085781 33.821531 12.050781 33.269531C12.015781 32.717531 11.551281 32.297031 10.988281 32.332031 z M 40.470703 34.111328L41.435547 35.173828 A 1.0001 1.0001 0 0 0 41.728516 35.396484L44.128906 36.597656L45.287109 37.755859 A 1.0001 1.0001 0 0 0 45.720703 38.011719L49.621094 39.126953L50.027344 40.753906L48.919922 42.970703 A 1.0001 1.0001 0 0 0 48.867188 43.101562L47.724609 46.529297L45.548828 47.619141 A 1.0001 1.0001 0 0 0 45.376953 47.726562L34.871094 55.994141L38.019531 47.589844 A 1.0001 1.0001 0 0 0 37.904297 46.666016L37.011719 45.392578 A 1.0001 1.0001 0 0 0 36.591797 45.048828L34.072266 43.951172L32.992188 40.707031L32.992188 38.736328L33.972656 37.755859 A 1.0001 1.0001 0 0 0 34.265625 37.048828L34.265625 35.119141L36.058594 34.222656L40.470703 34.111328 z M 12.080078 37.375C11.950922 37.363172 11.816297 37.378172 11.685547 37.419922L9.78125 38.027344C9.25625 38.195344 8.9648125 38.757203 9.1328125 39.283203C9.2688125 39.708203 9.6629375 39.980469 10.085938 39.980469C10.186937 39.980469 10.289625 39.963641 10.390625 39.931641L12.294922 39.324219C12.819922 39.156219 13.111359 38.592406 12.943359 38.066406C12.816609 37.671906 12.467547 37.410484 12.080078 37.375 z M 13.988281 42.039062C13.859859 42.058984 13.732984 42.105234 13.615234 42.177734L11.914062 43.228516C11.444063 43.518516 11.298844 44.135469 11.589844 44.605469C11.778844 44.911469 12.106406 45.078125 12.441406 45.078125C12.621406 45.078125 12.801844 45.029688 12.964844 44.929688L14.666016 43.878906C15.136016 43.588906 15.281234 42.971953 14.990234 42.501953C14.772734 42.148703 14.373547 41.979297 13.988281 42.039062 z M 17.332031 46.03125C17.076156 46.03425 16.821906 46.134531 16.628906 46.332031L15.232422 47.763672C14.846422 48.158672 14.853047 48.791734 15.248047 49.177734C15.443047 49.367734 15.695266 49.462891 15.947266 49.462891C16.207266 49.462891 16.467109 49.362156 16.662109 49.160156L18.060547 47.730469C18.446547 47.335469 18.437969 46.702406 18.042969 46.316406C17.845469 46.123906 17.587906 46.02825 17.332031 46.03125 z" fill="#44CC88" />
</svg>