<svg xmlns="http://www.w3.org/2000/svg" xmlns:xlink="http://www.w3.org/1999/xlink" viewBox="0 0 80 80" fill="#BCBEBE">
  <path d="M11 16C8.2504839 16 6 18.250484 6 21L6 59C6 61.749516 8.2504839 64 11 64L51.560547 64C55.24411 76.784196 64.220175 79.802298 64.697266 79.953125C64.796266 79.984125 64.898 80 65 80C65.102 80 65.202781 79.983125 65.300781 79.953125C65.901781 79.763125 80 75.041172 80 51.951172C80 51.398172 79.552 50.951172 79 50.951172C77.216562 50.951172 75.536971 50.793873 74 50.558594L74 21C74 18.250484 71.749516 16 69 16L11 16 z M 11 18L69 18C70.668484 18 72 19.331516 72 21L72 26L8 26L8 21C8 19.331516 9.3315161 18 11 18 z M 8 30L72 30L72 50.181641C68.065916 49.34414 65.478377 48.120694 65.439453 48.101562C65.162453 47.966563 64.837594 47.964563 64.558594 48.101562C64.500594 48.130563 58.677047 50.949219 50.998047 50.949219C50.446047 50.949219 49.998047 51.397219 49.998047 51.949219C49.998047 55.789768 50.395752 59.112057 51.048828 62L11 62C9.3315161 62 8 60.668484 8 59L8 30 z M 12 35 A 1 1 0 0 0 11 36 A 1 1 0 0 0 12 37 A 1 1 0 0 0 13 36 A 1 1 0 0 0 12 35 z M 16 35 A 1 1 0 0 0 15 36 A 1 1 0 0 0 16 37 A 1 1 0 0 0 17 36 A 1 1 0 0 0 16 35 z M 20 35 A 1 1 0 0 0 19 36 A 1 1 0 0 0 20 37 A 1 1 0 0 0 21 36 A 1 1 0 0 0 20 35 z M 24 35 A 1 1 0 0 0 23 36 A 1 1 0 0 0 24 37 A 1 1 0 0 0 25 36 A 1 1 0 0 0 24 35 z M 28 35 A 1 1 0 0 0 27 36 A 1 1 0 0 0 28 37 A 1 1 0 0 0 29 36 A 1 1 0 0 0 28 35 z M 32 35 A 1 1 0 0 0 31 36 A 1 1 0 0 0 32 37 A 1 1 0 0 0 33 36 A 1 1 0 0 0 32 35 z M 36 35 A 1 1 0 0 0 35 36 A 1 1 0 0 0 36 37 A 1 1 0 0 0 37 36 A 1 1 0 0 0 36 35 z M 65 50.101562C66.481 50.756563 71.485234 52.743547 77.990234 52.935547C77.636234 72.099547 67 77.1565 65 77.9375C63 77.1565 52.363766 72.099547 52.009766 52.935547C58.514766 52.743547 63.519 50.756563 65 50.101562 z M 74.087891 56.003906C73.532891 55.952906 73.050906 56.362109 73.003906 56.912109L72.994141 57.029297C72.955141 57.580297 73.370875 58.060609 73.921875 58.099609C73.945875 58.100609 73.968187 58.101562 73.992188 58.101562C74.512187 58.101563 74.952234 57.697875 74.990234 57.171875L74.996094 57.085938C75.044094 56.535938 74.637891 56.051906 74.087891 56.003906 z M 73.160156 60.193359C72.773062 60.272063 72.43975 60.586281 72.34375 60.988281C72.21575 61.525281 72.550938 62.042875 73.085938 62.171875C73.161937 62.189875 73.2375 62.199219 73.3125 62.199219C73.7675 62.199219 74.184875 61.874063 74.296875 61.414062C74.297875 61.412062 74.3115 61.353563 74.3125 61.351562C74.4385 60.814562 74.095594 60.326219 73.558594 60.199219C73.424594 60.167469 73.289187 60.167125 73.160156 60.193359 z M 72.03125 64.082031C71.641484 64.077062 71.267313 64.302141 71.101562 64.681641L71.058594 64.78125C70.840594 65.28925 71.076031 65.87675 71.582031 66.09375C71.711031 66.14975 71.845562 66.175781 71.976562 66.175781C72.364563 66.175781 72.734484 65.949313 72.896484 65.570312L72.933594 65.484375C73.155594 64.978375 72.925922 64.388969 72.419922 64.167969C72.293422 64.112469 72.161172 64.083687 72.03125 64.082031 z M 69.832031 67.769531C69.581031 67.818656 69.347859 67.962406 69.193359 68.191406L69.134766 68.279297C68.828766 68.739297 68.953109 69.361969 69.412109 69.667969C69.583109 69.781969 69.775797 69.834984 69.966797 69.833984C70.289797 69.833984 70.605828 69.677672 70.798828 69.388672L70.853516 69.308594C71.161516 68.850594 71.040031 68.228922 70.582031 67.919922C70.352531 67.766422 70.083031 67.720406 69.832031 67.769531 z M 67.326172 71.037109C67.062172 71.047859 66.798469 71.156016 66.605469 71.353516C66.214469 71.744516 66.214469 72.376578 66.605469 72.767578C66.801469 72.962578 67.0565 73.060547 67.3125 73.060547C67.5685 73.060547 67.824531 72.962578 68.019531 72.767578L68.099609 72.6875C68.485609 72.2935 68.447734 71.693641 68.052734 71.306641C67.855734 71.113141 67.590172 71.026359 67.326172 71.037109 z" fill="#BCBEBE" />
</svg>