<svg xmlns="http://www.w3.org/2000/svg" xmlns:xlink="http://www.w3.org/1999/xlink" viewBox="0 0 26 26" fill="#DFDFDF">
  <path d="M6.65625 4C6.367188 4 6.105469 4.113281 5.90625 4.3125L4.3125 5.90625C3.914063 6.304688 3.914063 7 4.3125 7.5L9.8125 13L4.3125 18.5C3.914063 19 3.914063 19.695313 4.3125 20.09375L5.90625 21.6875C6.40625 22.085938 7.101563 22.085938 7.5 21.6875L13 16.1875L18.5 21.6875C19 22.085938 19.695313 22.085938 20.09375 21.6875L21.6875 20.09375C22.085938 19.59375 22.085938 18.898438 21.6875 18.5L16.1875 13L21.6875 7.5C22.085938 7 22.085938 6.304688 21.6875 5.90625L20.09375 4.3125C19.59375 3.914063 18.898438 3.914063 18.5 4.3125L13 9.8125L7.5 4.3125C7.25 4.113281 6.945313 4 6.65625 4Z" fill="#DFDFDF" />
</svg>