<svg xmlns="http://www.w3.org/2000/svg" xmlns:xlink="http://www.w3.org/1999/xlink" viewBox="0 0 30 30" fill="#B9B9B9">
  <path d="M7.9785156 5.9804688 A 2.0002 2.0002 0 0 0 6.5859375 9.4140625L12.171875 15L6.5859375 20.585938 A 2.0002 2.0002 0 1 0 9.4140625 23.414062L15 17.828125L20.585938 23.414062 A 2.0002 2.0002 0 1 0 23.414062 20.585938L17.828125 15L23.414062 9.4140625 A 2.0002 2.0002 0 0 0 21.960938 5.9804688 A 2.0002 2.0002 0 0 0 20.585938 6.5859375L15 12.171875L9.4140625 6.5859375 A 2.0002 2.0002 0 0 0 7.9785156 5.9804688 z" fill="#B9B9B9" />
</svg>