<svg xmlns="http://www.w3.org/2000/svg" xmlns:xlink="http://www.w3.org/1999/xlink" viewBox="0 0 64 64" fill="#44CC88">
  <path d="M3 8C1.347656 8 0 9.347656 0 11L0 47C0 48.652344 1.347656 50 3 50L26 50L26 54L23.65625 54C22.320313 54 21.066406 54.519531 20.121094 55.464844L17.292969 58.292969C17.007813 58.578125 16.921875 59.007813 17.078125 59.382813C17.230469 59.753906 17.597656 60 18 60L46 60C46.402344 60 46.769531 59.753906 46.921875 59.382813C47.078125 59.007813 46.992188 58.578125 46.707031 58.292969L43.878906 55.464844C42.933594 54.519531 41.679688 54 40.34375 54L38 54L38 50L61 50C62.652344 50 64 48.652344 64 47L64 11C64 9.347656 62.652344 8 61 8 Z M 3 10L61 10C61.550781 10 62 10.449219 62 11L62 42L59 42C58.449219 42 58 42.449219 58 43C58 43.550781 58.449219 44 59 44L62 44L62 47C62 47.550781 61.550781 48 61 48L3 48C2.449219 48 2 47.550781 2 47L2 44L39.082031 44C39.632813 44 40.082031 43.550781 40.082031 43C40.082031 42.449219 39.632813 42 39.082031 42L2 42L2 11C2 10.449219 2.449219 10 3 10 Z M 5 12C4.449219 12 4 12.449219 4 13C4 13.550781 4.449219 14 5 14L51 14C51.550781 14 52 13.550781 52 13C52 12.449219 51.550781 12 51 12 Z M 55 12C54.449219 12 54 12.449219 54 13C54 13.550781 54.449219 14 55 14L59 14C59.550781 14 60 13.550781 60 13C60 12.449219 59.550781 12 59 12 Z M 32.019531 15.527344C31.621094 15.527344 31.226563 15.660156 30.894531 15.925781L30.332031 16.375C28.5625 17.789063 26.4375 18.617188 24.175781 18.765625L22.722656 18.863281C21.738281 18.929688 20.984375 19.789063 21.046875 20.785156L21.324219 24.609375C21.648438 29.136719 23.710938 33.269531 27.136719 36.25L30.839844 39.464844C31.175781 39.757813 31.597656 39.90625 32.019531 39.90625C32.441406 39.90625 32.867188 39.761719 33.203125 39.46875L36.90625 36.25C40.328125 33.269531 42.394531 29.136719 42.71875 24.609375L42.996094 20.777344C43.058594 19.789063 42.304688 18.929688 41.316406 18.863281L39.863281 18.765625C37.605469 18.617188 35.476563 17.789063 33.707031 16.375L33.144531 15.925781C32.8125 15.660156 32.417969 15.527344 32.019531 15.527344 Z M 32.019531 17.589844L32.457031 17.9375C34.546875 19.609375 37.0625 20.585938 39.734375 20.765625L40.984375 20.847656L40.726563 24.46875C40.4375 28.464844 38.613281 32.109375 35.59375 34.738281L32.019531 37.84375L28.453125 34.738281C25.429688 32.109375 23.605469 28.464844 23.316406 24.46875L23.058594 20.847656L24.308594 20.765625C26.980469 20.585938 29.496094 19.609375 31.582031 17.9375 Z M 44 41C43.449219 41 43 41.449219 43 42L43 44C43 44.550781 43.449219 45 44 45C44.550781 45 45 44.550781 45 44L45 42C45 41.449219 44.550781 41 44 41 Z M 49 41C48.449219 41 48 41.449219 48 42L48 44C48 44.550781 48.449219 45 49 45C49.550781 45 50 44.550781 50 44L50 42C50 41.449219 49.550781 41 49 41 Z M 54 41C53.449219 41 53 41.449219 53 42L53 44C53 44.550781 53.449219 45 54 45C54.550781 45 55 44.550781 55 44L55 42C55 41.449219 54.550781 41 54 41 Z M 28 50L36 50L36 54L28 54 Z M 23.65625 56L40.34375 56C41.132813 56 41.90625 56.320313 42.464844 56.878906L43.585938 58L20.414063 58L21.535156 56.878906C22.09375 56.320313 22.867188 56 23.65625 56Z" fill="#44CC88" />
</svg>