<svg xmlns="http://www.w3.org/2000/svg" xmlns:xlink="http://www.w3.org/1999/xlink" width="32" height="32" viewBox="0 0 32 32" fill="#BDBDBD">
  <path d="M25 1L25 1.0546875C23.469112 1.2426181 22.088732 2.0669471 21.236328 3.3515625C21.244492 3.3427061 21.25359 3.3350684 21.261719 3.3261719L21.150391 3.4726562C21.176695 3.4303756 21.208907 3.3928872 21.236328 3.3515625C19.639243 5.0841154 17.378524 6.0487043 15.021484 6L15.009766 6L15 6C13.902817 6 13.431023 5.895835 12.988281 5.6757812C12.54554 5.4557275 12.035895 5.02068 11.125 4.2949219L11.123047 4.2929688L10.958984 4.1640625L10.798828 4.0488281L10.826172 4.0703125C10.392369 3.7377173 9.8606288 3.5605039 9.3144531 3.5527344C7.638526 3.4574291 6.1979327 4.8215268 6.2207031 6.5058594L6.2207031 6.5214844L6.2226562 6.5371094C6.2763606 7.7212538 6.8448459 8.6289476 7.2832031 9.359375C7.7215604 10.089802 8 10.645161 8 11C8 14.36733 5.5479895 17.267868 2.4785156 19.146484C1.4657004 19.750974 0.90177377 20.893936 1.0136719 22.066406C1.0333289 24.065532 2.5787798 25.747819 4.5800781 25.90625L4.6210938 25.908203L4.6601562 25.908203C4.9837413 25.907726 5.306656 25.865283 5.6191406 25.78125L5.6210938 25.78125L5.6230469 25.78125C6.087451 25.654537 6.3262517 25.478261 6.65625 25.298828C6.9862483 25.119396 7.3670514 24.930325 7.3476562 24.9375L7.4160156 24.912109L7.4785156 24.876953C8.5550039 24.289574 9.7639773 23.988304 10.990234 24L10.996094 24L11 24C16.339097 24 18.804411 27.246313 20.298828 28.712891L20.300781 28.714844C21.541764 29.928803 23.1319 30.72387 24.847656 30.988281L24.933594 31.001953L25.021484 31C28.281885 30.927485 30.927485 28.281885 31 25.021484L31 25.011719L31 25C31 22.751224 29.319977 21.153279 27.552734 20.166016C25.850723 19.039568 24.877998 17.096072 24.998047 15.058594L25.001953 14.998047L24.998047 14.9375C24.890674 13.225541 25.814978 11.621784 27.349609 10.855469L27.396484 10.832031L27.439453 10.804688C27.604049 10.699587 27.770747 10.591742 27.9375 10.470703C28.659071 9.9594296 31 8.52488 31 6C31 4.2777778 30.345945 2.8740566 29.207031 2.0605469C28.106677 1.2745798 26.700548 1.0321855 25.154297 1.015625L25.152344 1.0039062C25.143344 1.0047318 25.135993 1.0108488 25.126953 1.0117188C25.082402 1.0113309 25.044841 1 25 1 z M 25.191406 3.0429688C26.45198 3.0724408 27.470303 3.2804062 28.042969 3.6894531C28.654055 4.1259434 29 4.7222222 29 6C29 7.15312 27.555679 8.2911173 26.78125 8.8398438L26.775391 8.84375L26.769531 8.8476562C26.666222 8.9230642 26.526819 9.014713 26.363281 9.1191406L26.455078 9.0664062C24.224076 10.180453 22.87293 12.519306 23.005859 15.005859C22.868643 17.728107 24.171627 20.327891 26.447266 21.833984L26.482422 21.857422L26.519531 21.876953C27.982459 22.679319 28.99136 23.753513 28.996094 24.992188C28.940154 27.167375 27.225836 28.889751 25.060547 28.982422C23.795125 28.767372 22.6202 28.18534 21.701172 27.287109L21.699219 27.285156C20.50912 26.116638 17.190214 22.001903 11.003906 22C9.4562351 21.986226 7.932758 22.370269 6.5703125 23.103516C6.2504754 23.232618 5.9905821 23.384543 5.6992188 23.542969C5.3825207 23.71517 4.9837931 23.880461 5.0996094 23.849609C4.9740327 23.883378 4.8446762 23.895839 4.7148438 23.900391C3.7303617 23.808257 2.9893438 23.00198 3 22.009766L3 21.949219L2.9941406 21.888672C2.9478496 21.472102 3.146782 21.074237 3.5078125 20.861328L3.515625 20.857422L3.5214844 20.853516C6.968013 18.744126 10 15.31867 10 11C10 9.8778394 9.4294396 9.0489007 8.9980469 8.3300781C8.5701863 7.6171412 8.256443 7.0169877 8.2265625 6.4628906C8.2289885 5.9141488 8.6624288 5.5030871 9.2128906 5.5429688L9.2480469 5.5449219L9.28125 5.5449219C9.3996201 5.5454244 9.5154319 5.5842329 9.609375 5.65625L9.6210938 5.6660156L9.7558594 5.7617188L9.8808594 5.8613281C10.753633 6.556936 11.32482 7.0817067 12.099609 7.4667969C12.872492 7.8509395 13.756299 7.9968684 14.988281 7.9980469C17.928564 8.0558769 20.754316 6.845096 22.738281 4.6738281L22.800781 4.6074219L22.849609 4.5273438C23.36531 3.6984201 24.229827 3.1762544 25.191406 3.0429688 z M 15.5 11 A 4.5 4.5 0 1 0 19 18.320312L19 19.099609 A 1.006 1.006 0 0 0 21 19.099609L21 11.900391 A 1.006 1.006 0 0 0 19 11.900391L19 12.677734 A 4.5 4.5 0 0 0 15.5 11 z M 15.900391 12.800781 A 2.6 2.6 0 0 1 18.390625 15.5 A 2.6 2.6 0 0 1 15.900391 18.199219 A 2.6 2.6 0 0 1 13.408203 15.5 A 2.6 2.6 0 0 1 15.900391 12.800781 z" fill="#BDBDBD" />
</svg>