<svg xmlns="http://www.w3.org/2000/svg" xmlns:xlink="http://www.w3.org/1999/xlink" viewBox="0 0 24 24" fill="#BDBDBD">
  <path d="M3.984375 2.9863281 A 1.0001 1.0001 0 0 0 3 4L3 19C3 20.093063 3.9069372 21 5 21L20 21 A 1.0001 1.0001 0 1 0 20 19L5 19L5 4 A 1.0001 1.0001 0 0 0 3.984375 2.9863281 z M 18.980469 6.9902344 A 1.0001 1.0001 0 0 0 18.292969 7.2929688L14.984375 10.601562L12.691406 8.4082031 A 1.0001 1.0001 0 0 0 11.304688 8.4121094L7.3046875 12.28125 A 1.0001 1.0001 0 1 0 8.6953125 13.71875L12.003906 10.517578L14.308594 12.722656 A 1.0001 1.0001 0 0 0 15.707031 12.707031L19.707031 8.7070312 A 1.0001 1.0001 0 0 0 18.980469 6.9902344 z" fill="#BDBDBD" />
</svg>