<svg xmlns="http://www.w3.org/2000/svg" xmlns:xlink="http://www.w3.org/1999/xlink" viewBox="0 0 80 80" fill="#BCBEBE">
  <path d="M40 8C31.363281 8 25.210938 9.78125 21.214844 11.589844C17.214844 13.394531 15.292969 15.292969 15.292969 15.292969L15 15.585938L15 41.667969C15 43.25 15.539063 45.472656 16.566406 48.15625C17.59375 50.835938 19.125 53.925781 21.167969 57.011719C25.25 63.179688 31.402344 69.363281 39.703125 71.953125L40 72.046875L40.296875 71.953125C48.617188 69.355469 54.757813 62.917969 58.839844 56.625C60.878906 53.480469 62.40625 50.363281 63.433594 47.738281C64.457031 45.113281 65 43.058594 65 41.667969L65 15.585938L64.707031 15.292969C64.707031 15.292969 62.785156 13.394531 58.785156 11.589844C54.789063 9.78125 48.636719 8 40 8 Z M 40 10C48.363281 10 54.210938 11.71875 57.964844 13.410156C61.277344 14.910156 62.667969 16.160156 63 16.46875L63 41.667969C63 42.445313 62.542969 44.511719 61.566406 47.011719C60.59375 49.511719 59.121094 52.519531 57.160156 55.539063C53.644531 60.957031 48.554688 66.355469 42 69.144531L42 60L38 60L38 69.15625C31.433594 66.402344 26.34375 61.207031 22.832031 55.90625C20.875 52.949219 19.40625 49.976563 18.433594 47.4375C17.460938 44.902344 17 42.75 17 41.667969L17 16.46875C17.332031 16.160156 18.722656 14.910156 22.035156 13.410156C25.789063 11.71875 31.636719 10 40 10 Z M 32 14C31.449219 14 31 14.449219 31 15C31 15.550781 31.449219 16 32 16C32.550781 16 33 15.550781 33 15C33 14.449219 32.550781 14 32 14 Z M 36 14C35.449219 14 35 14.449219 35 15C35 15.550781 35.449219 16 36 16C36.550781 16 37 15.550781 37 15C37 14.449219 36.550781 14 36 14 Z M 40 14C39.449219 14 39 14.449219 39 15C39 15.550781 39.449219 16 40 16C40.550781 16 41 15.550781 41 15C41 14.449219 40.550781 14 40 14 Z M 44 14C43.449219 14 43 14.449219 43 15C43 15.550781 43.449219 16 44 16C44.550781 16 45 15.550781 45 15C45 14.449219 44.550781 14 44 14 Z M 48 14C47.449219 14 47 14.449219 47 15C47 15.550781 47.449219 16 48 16C48.550781 16 49 15.550781 49 15C49 14.449219 48.550781 14 48 14 Z M 28 15C27.449219 15 27 15.449219 27 16C27 16.550781 27.449219 17 28 17C28.550781 17 29 16.550781 29 16C29 15.449219 28.550781 15 28 15 Z M 52 15C51.449219 15 51 15.449219 51 16C51 16.550781 51.449219 17 52 17C52.550781 17 53 16.550781 53 16C53 15.449219 52.550781 15 52 15 Z M 24 16C23.449219 16 23 16.449219 23 17C23 17.550781 23.449219 18 24 18C24.550781 18 25 17.550781 25 17C25 16.449219 24.550781 16 24 16 Z M 56 16C55.449219 16 55 16.449219 55 17C55 17.550781 55.449219 18 56 18C56.550781 18 57 17.550781 57 17C57 16.449219 56.550781 16 56 16 Z M 21 18C20.449219 18 20 18.449219 20 19C20 19.550781 20.449219 20 21 20C21.550781 20 22 19.550781 22 19C22 18.449219 21.550781 18 21 18 Z M 59 18C58.449219 18 58 18.449219 58 19C58 19.550781 58.449219 20 59 20C59.550781 20 60 19.550781 60 19C60 18.449219 59.550781 18 59 18 Z M 29 24C24 24 21 29 21 29C21 29 24 27 27.667969 27C31.25 27 33.035156 30.863281 33.585938 31.410156C34.367188 32.191406 35.632813 32.191406 36.414063 31.410156C37.195313 30.632813 37.195313 29.367188 36.414063 28.585938C35.925781 28.101563 33.582031 24 29 24 Z M 51 24C46.417969 24 44.074219 28.101563 43.585938 28.585938C42.804688 29.367188 42.804688 30.632813 43.585938 31.410156C44.367188 32.191406 45.632813 32.191406 46.414063 31.410156C46.964844 30.863281 48.75 27 52.332031 27C56 27 59 29 59 29C59 29 56 24 51 24 Z M 28 32C25.949219 32 24.148438 32.792969 23 34C24.148438 35.207031 25.949219 36 28 36C30.050781 36 31.851563 35.207031 33 34C31.851563 32.792969 30.050781 32 28 32 Z M 52 32C49.949219 32 48.148438 32.792969 47 34C48.148438 35.207031 49.949219 36 52 36C54.050781 36 55.851563 35.207031 57 34C55.851563 32.792969 54.050781 32 52 32 Z M 21 43L28 54L37 54L40 51L43 54L52 54L59 43L51 50L45 50L42 46L38 46L34.667969 50L29 50Z" fill="#BCBEBE" />
</svg>