<svg xmlns="http://www.w3.org/2000/svg" xmlns:xlink="http://www.w3.org/1999/xlink" viewBox="0 0 24 24" fill="#BDBDBD">
  <path d="M12 2C6.4889971 2 2 6.4889971 2 12C2 17.511003 6.4889971 22 12 22C17.511003 22 22 17.511003 22 12C22 6.4889971 17.511003 2 12 2 z M 12 4C16.430123 4 20 7.5698774 20 12C20 16.430123 16.430123 20 12 20C7.5698774 20 4 16.430123 4 12C4 7.5698774 7.5698774 4 12 4 z M 12 6C9.79 6 8 7.79 8 10L10 10C10 8.9 10.9 8 12 8C13.1 8 14 8.9 14 10C14 12 11 12.367 11 15L13 15C13 13.349 16 12.5 16 10C16 7.79 14.21 6 12 6 z M 11 16L11 18L13 18L13 16L11 16 z" fill="#BDBDBD" />
</svg>