<svg xmlns="http://www.w3.org/2000/svg" xmlns:xlink="http://www.w3.org/1999/xlink" viewBox="0 0 50 50" fill="#BEBEBE">
  <path d="M25 0C22.800781 0 21 1.800781 21 4C21 4.515625 21.101563 5.015625 21.28125 5.46875C15.65625 6.929688 12 11.816406 12 18C12 25.832031 10.078125 29.398438 8.25 31.40625C7.335938 32.410156 6.433594 33.019531 5.65625 33.59375C5.265625 33.878906 4.910156 34.164063 4.59375 34.53125C4.277344 34.898438 4 35.421875 4 36C4 37.375 4.84375 38.542969 6.03125 39.3125C7.21875 40.082031 8.777344 40.578125 10.65625 40.96875C13.09375 41.472656 16.101563 41.738281 19.40625 41.875C19.15625 42.539063 19 43.253906 19 44C19 47.300781 21.699219 50 25 50C28.300781 50 31 47.300781 31 44C31 43.25 30.847656 42.535156 30.59375 41.875C33.898438 41.738281 36.90625 41.472656 39.34375 40.96875C41.222656 40.578125 42.78125 40.082031 43.96875 39.3125C45.15625 38.542969 46 37.375 46 36C46 35.421875 45.722656 34.898438 45.40625 34.53125C45.089844 34.164063 44.734375 33.878906 44.34375 33.59375C43.566406 33.019531 42.664063 32.410156 41.75 31.40625C39.921875 29.398438 38 25.832031 38 18C38 11.820313 34.335938 6.9375 28.71875 5.46875C28.898438 5.015625 29 4.515625 29 4C29 1.800781 27.199219 0 25 0 Z M 25 2C26.117188 2 27 2.882813 27 4C27 5.117188 26.117188 6 25 6C23.882813 6 23 5.117188 23 4C23 2.882813 23.882813 2 25 2 Z M 27.34375 7.1875C32.675781 8.136719 36 12.257813 36 18C36 26.167969 38.078125 30.363281 40.25 32.75C41.335938 33.941406 42.433594 34.6875 43.15625 35.21875C43.515625 35.484375 43.785156 35.707031 43.90625 35.84375C44.027344 35.980469 44 35.96875 44 36C44 36.625 43.710938 37.082031 42.875 37.625C42.039063 38.167969 40.679688 38.671875 38.9375 39.03125C35.453125 39.753906 30.492188 40 25 40C19.507813 40 14.546875 39.753906 11.0625 39.03125C9.320313 38.671875 7.960938 38.167969 7.125 37.625C6.289063 37.082031 6 36.625 6 36C6 35.96875 5.972656 35.980469 6.09375 35.84375C6.214844 35.707031 6.484375 35.484375 6.84375 35.21875C7.566406 34.6875 8.664063 33.941406 9.75 32.75C11.921875 30.363281 14 26.167969 14 18C14 12.261719 17.328125 8.171875 22.65625 7.21875C23.320313 7.707031 24.121094 8 25 8C25.886719 8 26.679688 7.683594 27.34375 7.1875 Z M 21.5625 41.9375C22.683594 41.960938 23.824219 42 25 42C26.175781 42 27.316406 41.960938 28.4375 41.9375C28.792969 42.539063 29 43.25 29 44C29 46.222656 27.222656 48 25 48C22.777344 48 21 46.222656 21 44C21 43.242188 21.199219 42.539063 21.5625 41.9375Z" fill="#BEBEBE" />
</svg>