<svg xmlns="http://www.w3.org/2000/svg" xmlns:xlink="http://www.w3.org/1999/xlink" viewBox="0 0 24 24" fill="#B9B9B9">
  <path d="M12 2C11.172 2 10.5 2.672 10.5 3.5L10.5 4.1953125C7.9131836 4.862095 6 7.2048001 6 10L6 16L4 18L4 19L10.269531 19 A 2 2 0 0 0 10 20 A 2 2 0 0 0 12 22 A 2 2 0 0 0 14 20 A 2 2 0 0 0 13.728516 19L20 19L20 18L18 16L18 10C18 7.2048001 16.086816 4.862095 13.5 4.1953125L13.5 3.5C13.5 2.672 12.828 2 12 2 z M 12 6C14.206 6 16 7.794 16 10L16 16L16 16.828125L16.171875 17L7.828125 17L8 16.828125L8 16L8 10C8 7.794 9.794 6 12 6 z" fill="#B9B9B9" />
</svg>