<svg xmlns="http://www.w3.org/2000/svg" xmlns:xlink="http://www.w3.org/1999/xlink" viewBox="0 0 24 24" fill="#BDBDBD">
  <path d="M7.5 1C6.12 1 5 2.12 5 3.5L5 20.5C5 21.88 6.12 23 7.5 23L16.5 23C17.88 23 19 21.88 19 20.5L19 3.5C19 2.12 17.88 1 16.5 1L7.5 1 z M 7 4L17 4L17 18L7 18L7 4 z M 14.585938 8L11 11.585938L9.4140625 10L8 11.414062L11 14.414062L16 9.4140625L14.585938 8 z M 12 18.875C12.622 18.875 13.125 19.378 13.125 20C13.125 20.622 12.622 21.125 12 21.125C11.378 21.125 10.875 20.622 10.875 20C10.875 19.378 11.378 18.875 12 18.875 z" fill="#BDBDBD" />
</svg>