<svg xmlns="http://www.w3.org/2000/svg" xmlns:xlink="http://www.w3.org/1999/xlink" viewBox="0 0 64 64" fill="#BDBDBD">
  <path d="M31 0C18.652344 0 8.550781 9.78125 8.023438 22L7 22C4.242188 22 2 24.242188 2 27L2 41C2 43.757813 4.242188 46 7 46L10.183594 46C10.597656 47.160156 11.699219 48 13 48C14.652344 48 16 46.652344 16 45L16 23C16 21.347656 14.652344 20 13 20C11.699219 20 10.597656 20.839844 10.183594 22L10.050781 22C10.265625 17.515625 11.875 13.402344 14.476563 10.082031L19.003906 14.527344C19.785156 15.292969 20.800781 15.683594 21.8125 15.683594C22.703125 15.683594 23.59375 15.382813 24.328125 14.773438C26.472656 12.984375 29.199219 12 32 12C34.789063 12 37.507813 12.980469 39.652344 14.757813C41.222656 16.058594 43.511719 15.945313 44.980469 14.496094L49.488281 10.039063C52.109375 13.367188 53.734375 17.496094 53.949219 22L53.8125 22C53.402344 20.835938 52.300781 20 51 20C49.34375 20 48 21.34375 48 23L48 45C48 46.652344 49.34375 48 51 48C52.300781 48 53.402344 47.160156 53.8125 46L55 46L55 48C55 52.960938 50.964844 57 46 57L39.859375 57C39.410156 55.277344 37.859375 54 36 54L34 54C31.792969 54 30 55.792969 30 58C30 60.203125 31.792969 62 34 62L36 62C37.859375 62 39.410156 60.71875 39.859375 59L46 59C52.066406 59 57 54.0625 57 48L57 46C59.757813 46 62 43.753906 62 41L62 27C62 24.242188 59.757813 22 57 22L55.972656 22C55.449219 9.78125 45.347656 0 33 0 Z M 31 2L33 2C38.96875 2 44.351563 4.515625 48.175781 8.523438L43.574219 13.074219C42.839844 13.800781 41.703125 13.855469 40.925781 13.21875C38.425781 11.144531 35.257813 10 32 10C28.734375 10 25.554688 11.148438 23.046875 13.234375C22.277344 13.875 21.140625 13.820313 20.40625 13.097656L15.785156 8.566406C19.613281 4.53125 25.011719 2 31 2 Z M 32 4C31.445313 4 31 4.445313 31 5L31 7C31 7.554688 31.445313 8 32 8C32.554688 8 33 7.554688 33 7L33 5C33 4.445313 32.554688 4 32 4 Z M 37.425781 4.742188C37.042969 4.792969 36.707031 5.070313 36.597656 5.472656L36.078125 7.40625C35.9375 7.9375 36.253906 8.488281 36.785156 8.632813C36.875 8.652344 36.960938 8.664063 37.046875 8.664063C37.488281 8.664063 37.894531 8.371094 38.015625 7.921875L38.53125 5.992188C38.675781 5.457031 38.355469 4.910156 37.824219 4.765625C37.691406 4.730469 37.554688 4.722656 37.425781 4.742188 Z M 26.574219 4.742188C26.445313 4.722656 26.308594 4.730469 26.175781 4.765625C25.644531 4.910156 25.324219 5.457031 25.46875 5.992188L25.984375 7.921875C26.105469 8.371094 26.507813 8.664063 26.953125 8.664063C27.039063 8.664063 27.125 8.652344 27.214844 8.632813C27.746094 8.488281 28.0625 7.941406 27.921875 7.40625L27.402344 5.476563C27.292969 5.074219 26.957031 4.796875 26.574219 4.742188 Z M 21.125 6.886719C20.996094 6.902344 20.867188 6.945313 20.75 7.015625C20.269531 7.292969 20.109375 7.902344 20.386719 8.382813L21.386719 10.109375C21.570313 10.433594 21.90625 10.609375 22.25 10.609375C22.421875 10.609375 22.59375 10.570313 22.75 10.480469C23.230469 10.203125 23.390625 9.589844 23.113281 9.109375L22.113281 7.382813C21.910156 7.023438 21.511719 6.839844 21.125 6.886719 Z M 42.875 6.890625C42.484375 6.839844 42.089844 7.023438 41.886719 7.382813L40.886719 9.113281C40.609375 9.589844 40.769531 10.203125 41.25 10.480469C41.40625 10.570313 41.578125 10.613281 41.75 10.613281C42.09375 10.613281 42.429688 10.433594 42.613281 10.113281L43.613281 8.382813C43.890625 7.902344 43.726563 7.292969 43.25 7.015625C43.128906 6.945313 43.003906 6.90625 42.875 6.890625 Z M 13 22C13.550781 22 14 22.449219 14 23L14 45C14 45.550781 13.550781 46 13 46C12.449219 46 12 45.550781 12 45L12 23C12 22.449219 12.449219 22 13 22 Z M 51 22C51.550781 22 52 22.449219 52 23L52 45C52 45.550781 51.550781 46 51 46C50.449219 46 50 45.550781 50 45L50 23C50 22.449219 50.449219 22 51 22 Z M 7 24L10 24L10 44L7 44C5.347656 44 4 42.652344 4 41L4 27C4 25.347656 5.347656 24 7 24 Z M 54 24L57 24C58.652344 24 60 25.347656 60 27L60 41C60 42.652344 58.652344 44 57 44L54 44 Z M 34 56L36 56C37.101563 56 38 56.898438 38 58C38 59.101563 37.101563 60 36 60L34 60C32.898438 60 32 59.101563 32 58C32 56.898438 32.898438 56 34 56Z" fill="#BDBDBD" />
</svg>