<svg xmlns="http://www.w3.org/2000/svg" xmlns:xlink="http://www.w3.org/1999/xlink" viewBox="0 0 24 24" fill="#FFFFFF">
  <path d="M12 3C7.037 3 3 7.038 3 12L5 12C5 8.14 8.141 5 12 5C14.185097 5 16.125208 6.0167955 17.408203 7.5917969L15 10L21 10L21 4L18.833984 6.1660156C17.184843 4.2316704 14.736456 3 12 3 z M 19 12C19 15.859 15.859 19 12 19C9.8149031 19 7.8747922 17.983204 6.5917969 16.408203L9 14L3 14L3 20L5.1660156 17.833984C6.8151574 19.76833 9.263544 21 12 21C16.963 21 21 16.963 21 12L19 12 z" fill="#FFFFFF" />
</svg>